<svg id="Layer_1" data-name="Layer 1" xmlns="http://www.w3.org/2000/svg" viewBox="0 0 1118.11 500"><defs><style>.cls-1{fill:#3a677a;}.cls-2{fill:#c7c6c6;}</style></defs><path class="cls-1" d="M1050.62,183.17A66.83,66.83,0,0,0,983.79,250,116.34,116.34,0,1,1,867.45,133.67a66.84,66.84,0,1,0-66.83-66.84A116.34,116.34,0,0,1,684.29,183.17a66.83,66.83,0,1,0,0,133.66A116.34,116.34,0,0,1,800.62,433.17a66.84,66.84,0,0,0,133.67,0,116.34,116.34,0,0,1,116.33-116.34,66.83,66.83,0,1,0,0-133.66Z"/><path class="cls-1" d="M12.9,225.41V41.32h26l59,93.13a520.5,520.5,0,0,1,33,59.82l.55-.27c-2.19-24.59-2.73-47-2.73-75.66v-77H151.1V225.41h-24L68.62,132C55.79,111.51,43.49,90.48,34.21,70.54l-.82.27C34.75,94,35.3,116.16,35.3,146.74v78.67Z"/><path class="cls-1" d="M321.27,219.4c-8.74,4.37-26.22,8.74-48.62,8.74-51.9,0-90.95-32.78-90.95-93.14,0-57.63,39.05-96.69,96.14-96.69,22.94,0,37.42,4.92,43.7,8.2L315.8,65.9c-9-4.37-21.85-7.65-37.14-7.65-43.16,0-71.84,27.59-71.84,75.93,0,45.07,26,74,70.75,74,14.47,0,29.22-3,38.78-7.65Z"/><path class="cls-1" d="M506.17,144.56c-1.36-25.67-3-56.54-2.73-79.48h-.82c-6.28,21.58-13.93,44.52-23.21,69.92l-32.5,89.31h-18l-29.77-87.67C390.37,110.69,383,86.93,377.8,65.08h-.54c-.55,22.94-1.91,53.81-3.55,81.39l-4.92,78.94H346.12L359,41.32h30.32l31.41,89c7.64,22.67,13.93,42.88,18.57,62h.82c4.64-18.57,11.19-38.79,19.39-62l32.77-89h30.32L534,225.41H510.82Z"/><path class="cls-1" d="M16.24,363.57a28.53,28.53,0,0,0,14.37,4.34c7.93,0,11.65-4,11.65-8.92,0-5.2-3.1-8.05-11.15-11-10.78-3.85-15.86-9.79-15.86-17,0-9.66,7.8-17.59,20.69-17.59a29.82,29.82,0,0,1,14.74,3.72L48,325a23.43,23.43,0,0,0-12.27-3.46c-6.44,0-10,3.71-10,8.17,0,5,3.59,7.19,11.4,10.16,10.4,4,15.73,9.17,15.73,18.09,0,10.53-8.18,18-22.42,18a34.34,34.34,0,0,1-16.86-4.08Z"/><path class="cls-1" d="M82.64,297.91c.13,3.72-2.6,6.69-6.94,6.69a6.48,6.48,0,0,1-6.56-6.69A6.64,6.64,0,0,1,76,291.1,6.47,6.47,0,0,1,82.64,297.91ZM70.5,374.72v-60H81.4v60Z"/><path class="cls-1" d="M101.72,363.57a28.53,28.53,0,0,0,14.37,4.34c7.93,0,11.65-4,11.65-8.92,0-5.2-3.1-8.05-11.15-11-10.78-3.85-15.86-9.79-15.86-17,0-9.66,7.8-17.59,20.69-17.59a29.82,29.82,0,0,1,14.74,3.72L133.44,325a23.43,23.43,0,0,0-12.27-3.46c-6.44,0-10,3.71-10,8.17,0,5,3.59,7.19,11.39,10.16,10.41,4,15.74,9.17,15.74,18.09,0,10.53-8.18,18-22.43,18A34.32,34.32,0,0,1,99,371.88Z"/><path class="cls-1" d="M169.11,297.54v17.22h15.61v8.3H169.11V355.4c0,7.43,2.11,11.64,8.18,11.64a24.35,24.35,0,0,0,6.32-.74l.49,8.18a26.83,26.83,0,0,1-9.66,1.48c-5.08,0-9.17-1.61-11.77-4.58-3.1-3.22-4.21-8.55-4.21-15.61V323.06h-9.29v-8.3h9.29V300.39Z"/><path class="cls-1" d="M206,346.73c.25,14.74,9.67,20.81,20.57,20.81,7.81,0,12.51-1.36,16.6-3.1l1.86,7.81C241.22,374,234.65,376,225.11,376c-18.46,0-29.48-12.14-29.48-30.22s10.65-32.34,28.12-32.34c19.57,0,24.78,17.22,24.78,28.24a39.89,39.89,0,0,1-.38,5.09Zm32-7.81c.12-6.94-2.85-17.72-15.12-17.72-11,0-15.86,10.16-16.72,17.72Z"/><path class="cls-1" d="M265.74,331c0-6.19-.12-11.27-.49-16.23h9.54l.49,9.66h.37c3.35-5.7,8.92-11,18.84-11a17.72,17.72,0,0,1,17,12h.25a24.68,24.68,0,0,1,6.69-7.81,20.47,20.47,0,0,1,13.25-4.21c7.93,0,19.7,5.2,19.7,26v35.31H340.7V340.78c0-11.52-4.21-18.46-13-18.46-6.2,0-11,4.58-12.89,9.91a18.16,18.16,0,0,0-.86,5.45v37H303.28V338.8c0-9.54-4.21-16.48-12.51-16.48-6.82,0-11.77,5.45-13.51,10.9a15,15,0,0,0-.86,5.33v36.17H265.74Z"/><path class="cls-1" d="M406,374.72l-.87-7.55h-.37a22.32,22.32,0,0,1-18.33,8.92c-12.14,0-18.34-8.55-18.34-17.22,0-14.5,12.89-22.43,36.05-22.3v-1.24c0-5-1.36-13.88-13.63-13.88a29.84,29.84,0,0,0-15.61,4.46l-2.48-7.19c5-3.22,12.15-5.32,19.71-5.32,18.33,0,22.79,12.51,22.79,24.53v22.42a84.65,84.65,0,0,0,1,14.37Zm-1.61-30.6c-11.89-.25-25.4,1.86-25.4,13.51,0,7.06,4.71,10.4,10.28,10.4a14.91,14.91,0,0,0,14.5-10,11.38,11.38,0,0,0,.62-3.47Z"/><path class="cls-1" d="M518.84,374.72c-2.35-2.35-4.58-4.7-7.81-8.17a34.19,34.19,0,0,1-24.4,9.54c-16.23,0-25.65-10.91-25.65-23.42,0-11.39,6.82-19.2,16.35-24.41v-.37c-4.33-5.45-6.93-11.52-6.93-17.46,0-10.16,7.31-20.57,21.18-20.57,10.41,0,18.46,6.94,18.46,17.71,0,8.8-5.08,15.74-18.34,22.31v.37c7.07,8.17,15,17.34,20.33,23.29,3.84-5.82,6.44-13.88,8.05-24.41H530c-2.23,13.14-5.82,23.54-12,30.85,4.46,4.71,8.8,9.42,13.75,14.74Zm-13.13-14.37c-5-5.45-14.25-15.61-23.54-26.26-4.46,2.85-10.78,8.18-10.78,17,0,9.54,7.06,16.85,17.09,16.85A23.34,23.34,0,0,0,505.71,360.35Zm-25.4-50.92c0,5.95,2.72,10.53,6.32,15,8.42-4.83,13.87-9.29,13.87-16.35,0-5.08-2.85-10.78-9.66-10.78S480.31,303,480.31,309.43Z"/><path class="cls-1" d="M47.08,474.86c-2.85,1.49-9.17,3.47-17.22,3.47C11.77,478.33,0,466.07,0,447.73s12.64-31.84,32.21-31.84A36.45,36.45,0,0,1,47.33,419l-2.48,8.42c-2.6-1.48-6.69-2.85-12.64-2.85C18.46,424.56,11,434.72,11,447.23c0,13.88,8.92,22.43,20.81,22.43a31,31,0,0,0,13.38-3Z"/><path class="cls-1" d="M110.51,446.62c0,22.17-15.36,31.84-29.86,31.84-16.23,0-28.74-11.9-28.74-30.85,0-20.07,13.13-31.84,29.73-31.84C98.86,415.77,110.51,428.28,110.51,446.62Zm-47.58.61c0,13.14,7.56,23,18.22,23,10.4,0,18.21-9.79,18.21-23.29,0-10.16-5.08-23.05-18-23.05S62.93,435.84,62.93,447.23Z"/><path class="cls-1" d="M121.41,433.36c0-6.19-.13-11.27-.5-16.23h9.66l.63,9.91h.24c3-5.7,9.91-11.27,19.83-11.27,8.3,0,21.18,5,21.18,25.52v35.8h-10.9V442.53c0-9.67-3.59-17.72-13.88-17.72A15.49,15.49,0,0,0,133.05,436a15.82,15.82,0,0,0-.74,5.08v36h-10.9Z"/><path class="cls-1" d="M185.83,465.94a28.53,28.53,0,0,0,14.37,4.34c7.93,0,11.64-4,11.64-8.92,0-5.21-3.1-8.05-11.15-11-10.78-3.84-15.86-9.79-15.86-17,0-9.66,7.81-17.59,20.69-17.59a30,30,0,0,1,14.75,3.71l-2.73,7.93a23.39,23.39,0,0,0-12.27-3.47c-6.44,0-10,3.72-10,8.18,0,5,3.59,7.19,11.4,10.16,10.41,4,15.73,9.17,15.73,18.09,0,10.53-8.17,18-22.42,18a34.27,34.27,0,0,1-16.85-4.08Z"/><path class="cls-1" d="M283.7,460.74c0,6.2.12,11.65.49,16.35h-9.66l-.62-9.78h-.25a22.57,22.57,0,0,1-19.82,11.15c-9.42,0-20.69-5.21-20.69-26.27V417.13h10.9v33.2c0,11.4,3.47,19.08,13.38,19.08a15.76,15.76,0,0,0,14.37-9.91,15.92,15.92,0,0,0,1-5.58V417.13h10.9Z"/><path class="cls-1" d="M298.93,389.13h10.9v88h-10.9Z"/><path class="cls-1" d="M338.45,399.91v17.22h15.61v8.3H338.45v32.34c0,7.43,2.11,11.64,8.18,11.64a24.41,24.41,0,0,0,6.32-.74l.49,8.18a26.88,26.88,0,0,1-9.66,1.48c-5.08,0-9.17-1.61-11.77-4.58-3.1-3.22-4.21-8.55-4.21-15.61V425.43h-9.3v-8.3h9.3V402.76Z"/><path class="cls-1" d="M417,446.62c0,22.17-15.36,31.84-29.85,31.84-16.23,0-28.75-11.9-28.75-30.85,0-20.07,13.14-31.84,29.74-31.84C405.35,415.77,417,428.28,417,446.62Zm-47.57.61c0,13.14,7.56,23,18.21,23,10.41,0,18.21-9.79,18.21-23.29,0-10.16-5.08-23.05-18-23.05S369.42,435.84,369.42,447.23Z"/><path class="cls-1" d="M427.89,435.84c0-7.06-.12-13.13-.49-18.71h9.54l.37,11.77h.49c2.73-8,9.3-13.13,16.61-13.13a11.64,11.64,0,0,1,3.09.37v10.28a16.21,16.21,0,0,0-3.71-.37c-7.68,0-13.14,5.82-14.62,14a30.45,30.45,0,0,0-.5,5.08v32H427.89Z"/><path class="cls-1" d="M478.19,400.28c.12,3.72-2.6,6.69-6.94,6.69a6.48,6.48,0,0,1-6.57-6.69,6.64,6.64,0,0,1,6.82-6.81A6.47,6.47,0,0,1,478.19,400.28Zm-12.14,76.81v-60H477v60Z"/><path class="cls-1" d="M525.39,477.09l-.87-7.55h-.37a22.33,22.33,0,0,1-18.34,8.92c-12.14,0-18.33-8.55-18.33-17.22,0-14.5,12.88-22.43,36-22.3V437.7c0-5-1.36-13.88-13.63-13.88a29.84,29.84,0,0,0-15.61,4.46l-2.48-7.19c5-3.22,12.15-5.32,19.7-5.32,18.34,0,22.8,12.51,22.8,24.53v22.42a84.65,84.65,0,0,0,1,14.37Zm-1.61-30.6c-11.89-.25-25.4,1.86-25.4,13.51,0,7.06,4.71,10.4,10.28,10.4a14.92,14.92,0,0,0,14.5-10,11.44,11.44,0,0,0,.62-3.47Z"/><rect class="cls-2" x="7.11" y="258.28" width="535.28" height="10.24"/><path class="cls-2" d="M1051.28,0a66.84,66.84,0,0,0-66.84,66.83A116.34,116.34,0,0,1,868.11,183.17l-.66,0v0A66.83,66.83,0,1,0,934.29,250a116.33,116.33,0,0,1,116.33-116.33v0l.66,0a66.84,66.84,0,0,0,0-133.67Z"/></svg>